<svg className="  text-gray-300" width="500" height="500" viewBox="0 0 160 160" fill="url(#Gradient2)"
    stroke="#555e7099" strokeWidth="2px">
    <defs>
        <linearGradient id="Gradient3" x1="0" x2="0" y1="0" y2="1">
            <stop offset="0%" stopColor="#e9efff" stopOpacity="10" />
            <stop offset="60%" stopColor="#0badff" stopOpacity="10" />
            <stop offset="100%" stopColor="#0872A8" stopOpacity="10" />
        </linearGradient>
        <linearGradient id="Gradient2" x1="0" x2="0" y1="1" y2="1" gradientTransform="rotate(90)">
            <stop offset="0%" stopColor="#00caff" stopOpacity="30" />
            <stop offset="70%" stopColor="#0badff" stopOpacity="80" />
            <stop offset="100%" stopColor="#0872A8" stopOpacity="90" />
        </linearGradient>
        <linearGradient id="Gradient1" x1="0" x2="1" y1="0" y2="0" gradientTransform="rotate(90)">
            <stop offset="0%" stopColor="#e9efff" stopOpacity="80" />
            <stop offset="50%" stopColor="#ff00aa" stopOpacity="100" />
            <stop offset="100%" stopColor="#f0ffaa" stopOpacity="80" />
        </linearGradient>
    </defs>
    <circle cx="80" cy="80" r="50" fill="url(#Gradient2)" />
    <g transform=" matrix(0.866, -0.5, -0.25, -0.443, 80, 80)">
        <path d="M 0,70 A 65,70 0 0,0 65,0 5,5 0 0,1 75,0 75,70 0 0,1 0,70Z" fill="url(#Gradient1)" stroke="#555e70"
            strokeWidth="1px">
            <animateTransform attributeName="transform" type="rotate" from="360 -10 10" to="0 0 0" dur="8s"
                repeatCount="indefinite" />
        </path>
    </g>

    <path d="M 50,0 A 50,50 0 0,0 -50,0Z" fill="url(#Gradient3)" stroke="#00000000" strokeWidth="1px"
        transform="matrix(0.836, -0.495, 0.495, 0.836, 80, 80)" />
</svg>