<svg className="  text-gray-300" width="500" height="500" viewBox="0 0 160 160" fill="url(#Gradient2)"
    stroke="#555e7099" stop-width="2px">
    <defs>
        <linearGradient id="Gradient3" x1="0" x2="0" y1="0" y2="1">
            <stop offset="0%" stop-color="#e9efff" />
            <stop offset="60%" stop-color="#0badff" />
            <stop offset="100%" stop-color="#0872A8" />
        </linearGradient>
        <linearGradient id="Gradient2" x1="0" x2="0" y1="1" y2="1">
            <stop offset="0%" stop-color="#00caff" />
            <stop offset="70%" stop-color="#0badff" stop-opacity="80" />
            <stop offset="100%" stop-color="#0872A8" stop-opacity="90" />
        </linearGradient>
        <linearGradient id="Gradient1" x1="0" x2="1" y1="0" y2="0">
            <stop offset="0%" stop-color="#e9efff" stop-opacity="80" />
            <stop offset="50%" stop-color="#ff00aa" stop-opacity="100" />
            <stop offset="100%" stop-color="#f0ffaa" stop-opacity="80" />
        </linearGradient>
    </defs>
    <circle cx="80" cy="80" r="50" fill="url(#Gradient2)" />
    <g transform=" matrix(0.866, -0.5, -0.25, -0.443, 80, 80)">
        <path d="M 0,70 A 65,70 0 0,0 65,0 5,5 0 0,1 75,0 75,70 0 0,1 0,70Z" fill="url(#Gradient1)" stroke="#555e70"
            stroke-width="1px">
            <animateTransform attributeName="transform" type="rotate" from="360 -10 10" to="0 0 0" dur="8s"
                repeat-count="indefinite" />
        </path>
    </g>

    <path d="M 50,0 A 50,50 0 0,0 -50,0Z" fill="url(#Gradient3)" stroke="#00000000" stroke-width="1px"
        transform="matrix(0.836, -0.495, 0.495, 0.836, 80, 80)" />
</svg>