<svg xmlns="http://www.w3.org/2000/svg" viewBox="0 0 500 500" version="1.1" preserveAspectRatio="xMidYMid meet">
    <style>
        /* Firefox needs the transform to be in px not % due to a bug https://bugzilla.mozilla.org/show_bug.cgi?id=923193
Despite it being in pixel values it's still responsive */
        path {
            transform-origin: 50% 50%;
        }

        #back_triangles {
            transform: rotate(-38deg);
            animation: back_triangles 2.5s ease-out;
        }

        #front_triangles {
            transform: rotate(-38deg);
            animation: front_triangles 2.5s ease-out;
        }

        #letter_a {
            animation: letter_a 2.5s linear;
        }

        @keyframes back_triangles {
            0% {
                transform: scale(0, 0) rotate(322deg);
            }

            100% {
                transform: scale(1, 1) rotate(-38deg);
            }
        }

        @keyframes front_triangles {
            0% {
                opacity: 0;
                transform: scale(0, 0) rotate(-38deg);
            }

            20% {
                opacity: 1;
                transform: scale(0, 0) rotate(-38deg);
            }

            100% {
                transform: scale(1, 1) rotate(322deg);
            }
        }

        @keyframes letter_a {
            0% {
                opacity: 0;
                transform: scale(0, 0);
            }

            50% {
                opacity: 1;
                transform: scale(0, 0);
            }

            90% {
                transform: scale(1.1, 1.1);
            }

            100% {
                transform: scale(1, 1);
            }
        }
    </style>
    <g id="logo_outer" stroke="none" stroke-width="1" fill="none" fill-rule="evenodd">

        <g id="logo_inner">
            <g stroke="#555e70" stroke-width="1" fill="currentColor" id="letter" sketch:type="MSShapeGroup">
                <path
                    d="M244.8 69.7c-1 .2-1.8.9-1.8 1.4 0 .5-.4.9-1 .9-.5 0-2.2 1.3-3.8 2.8-1.6 1.6-47.5 78.8-102.1 171.8L36.8 415.5l.5 7.3c.3 5.7.8 7.6 2.5 9 1.1 1 2.4 3 2.7 4.5.4 1.5 1.4 2.7 2.1 2.7.8 0 2 1.1 2.6 2.5.6 1.4 1.9 2.5 2.9 2.5.9 0 1.9.6 2.1 1.2.4 1 41.6 1.4 198.9 2l198.4.7 6.8-2.1c3.7-1.1 6.7-2.6 6.7-3.3 0-.7 1.1-1.6 2.5-1.9 1.6-.4 2.5-1.3 2.5-2.6 0-1.1.7-2 1.5-2s1.7-1.1 2.1-2.5c.3-1.4 1.2-2.5 1.9-2.5 2 0 2.6-6 1.5-14-.9-6.5-1.9-8.8-8.9-20.4-4.4-7.2-47.6-80.1-96.2-162.1-48.5-82-88.6-149.2-89-149.3-.5-.2-.9-1-.9-1.8s-.4-1.4-1-1.4c-.5 0-1-.7-1-1.5s-1.1-1.7-2.4-2.1c-1.4-.3-2.7-1.2-3-2-.3-.8-1.2-1.4-2.1-1.4-.8 0-1.5-.6-1.5-1.4 0-2.7-17.9-5.6-24.2-3.9zm6.6 6.5c-.4.7-3.5 4.7-6.9 8.8-8.6 10.6-15.1 19.7-23.3 33-3.9 6.3-8.3 12.8-9.8 14.5l-2.6 3 2.8-5c10.6-19.1 29.1-49.4 31.7-52.1 2-2.1 4.2-3.3 6-3.3 2-.1 2.6.3 2.1 1.1zm21.3 7.7c1.5 1.5 3.7 4.3 4.7 6.1l1.9 3.3-2.9-.6c-1.6-.3-7.4-.1-12.9.5-12.5 1.4-17.5.6-17.5-2.6 0-3.7 3.6-5.9 12.3-7.7 11-2.3 11.1-2.3 14.4 1zm12.2 19c.9 1.4 2.8 4.6 4.4 7.2l2.7 4.8-14.2-.1c-11.4-.1-16.3.3-24 2-11.1 2.5-14.6 2.7-18.3 1-2-.9-2.5-1.8-2.5-4.8 0-3.3.4-4 3.3-5.3 6.5-3.1 9.3-4 15.2-4.9 3.3-.4 8.3-1.2 11-1.7 2.8-.5 8.5-.8 12.9-.8 7.1.2 8 .5 9.5 2.6zm9.7 19.7c1.9.5 5.3 5.6 13.2 19.4 1.1 1.9 4.7 8 8 13.5 5.2 8.5 5.9 10.1 4.6 11-4.9 3.1-5 3.4-3 5 1.1.8 3.4 1.5 5.2 1.5 3.5 0 4.8 1.4 9.3 9.6l2.3 4-6.7 6.7c-7.8 7.8-9.1 8.3-26.7 9.1l-12.7.6-7.6-3.3-7.6-3.4-7.7 1.9c-6.4 1.6-10.8 1.8-25.7 1.6-16.8-.2-18.7 0-28.1 2.5-11.8 3.1-17.8 5.5-23.7 9.5-2.3 1.6-6.2 3.6-8.6 4.6-2.3.9-5.9 2.8-7.9 4.1-4.3 2.9-8.9 3.2-10.7.8-2.2-2.9-.1-5.3 4.6-5.3 2.9 0 5.7-1.1 10.5-4.2 8.5-5.3 6.8-6.8-3.5-3.2-4 1.4-7.4 2.4-7.6 2.2-.1-.2.8-1.9 2.1-3.9 2-3.3 2.9-3.7 7.7-4.3 3-.4 6.6-.4 8.1 0 1.6.4 3.5.1 4.9-.8 3-2.1 11.7-4.4 21.2-5.8 16.1-2.4 16-2.4 16.3-4.7.5-3.1-3.6-4-7.9-1.8-2.5 1.3-4.7 1.6-9.2 1.1-4.7-.5-7.3-.1-13.3 1.9-12.3 4.1-19.5 2.8-16.4-2.9.7-1.4 2.2-2.7 3.4-3 3.9-1.2 31.1-5.6 34.1-5.6 1.7 0 4.6-1 6.5-2.1 3.2-2 3.3-2.2 1.5-3.5-2.5-1.8-4.7-1.8-9.3.2-2.4 1-8.6 1.9-17.2 2.4-7.4.4-13.6.7-13.7.6-.1 0 1.5-2.8 3.5-6.2l3.7-6.1 2.5 1.8c2.3 1.7 3.9 1.7 19 1 10.7-.5 19.6-.5 25.3.2 7 .9 9.9.8 14.5-.3 3.1-.8 10.2-1.5 15.7-1.5 9.6-.1 14.5-1.3 14.5-3.6 0-.5-1.2-1.4-2.7-2-2.2-.8-4.4-.6-10.1 1.1-4.4 1.3-8 1.9-9 1.4-2-.9-22.5-1.7-40.1-1.5-14.1.2-17.1-.8-17.1-5.9 0-3.5 3.7-6.7 8.9-7.5 2-.4 6.1-1.5 9.2-2.6 7.2-2.5 8.1-2.4 11.8.7 2.9 2.4 3.4 2.5 6.1 1.4 3.4-1.4 4.1-4.9 1.5-7-1.2-1-2.1-1-4.1-.1-1.4.6-4.8 1.1-7.7 1.1-6.3 0-11.1-2.6-12.1-6.6-.6-2.4-.3-3.3 2.3-5.6 4.4-4 10-5.2 25.1-5.3 7.4-.1 14.3-.5 15.4-1 1-.4 3.2-1.1 5-1.5 3.7-.9 27.2-1.2 30.2-.4zm-95.5 31.1c-1.2 2-1.4 1.4-.5-1.2.4-.9.9-1.4 1.1-1.1.3.2 0 1.3-.6 2.3zm140.6 42.5c.6.7 2.1 3.3 3.4 5.6 2.3 4.3 2.3 4.4.4 5.8-4.9 3.6-18.5-.5-18.5-5.6 0-1 1.2-2.9 2.6-4.4 2.1-2 3.7-2.6 6.9-2.6 2.3 0 4.7.6 5.2 1.2zm-92.7 11c0 .7-2.9 2.8-6.5 4.7-3.6 1.8-6.5 3.7-6.5 4.2 0 .4 1 1.3 2.1 2 1.7.9 4.1.5 12.3-2.1 5.5-1.7 11.2-3.6 12.6-4.2 10.4-4.4 16.8-5.8 26.4-5.8 11 0 13.6.6 13.6 3.1 0 1.8-.7 1.8-10.3 1.3-9.6-.6-10.6-.5-16 2-3.2 1.4-6.2 2.6-6.8 2.6-1.5 0-5.9 3.1-5.9 4.1 0 2.2 5.3 2.9 10.9 1.5 12.5-3.1 15.4-3.6 21.9-3.6 9.4 0 12.4 3.3 6 6.5-4.1 1.9-6 3.5-7.3 5.9-1.1 1.9-12.3 8.2-18.6 10.4-2 .7-8.8 1.5-15 1.9-8.9.5-10.7.8-8.2 1.5 5.7 1.5 5 7.8-.8 7.8-2.4 0-3.5 2-1.8 3.2 2.9 1.9 9.7.1 16.9-4.5 8.2-5.2 12.5-6.3 20.4-4.8 9.9 1.8 13.6 3.1 13.6 4.7 0 2.4-2.9 2.8-10.4 1.5-6.1-1-7.2-1-8.5.4-1.5 1.5-1.4 1.8.5 3.4 1.6 1.3 5.6 2.1 14.5 2.9 17.4 1.7 35.4 7.2 46.7 14.3 1.1.7 2.7.9 3.7.5 1.6-.6 1.6-.8.2-2.9-.8-1.2-4.1-3.6-7.3-5.3-3.3-1.7-6-3.8-6.2-4.8-.4-1.9.9-2 6.2-.5 5.6 1.6 8.6.5 8.6-3 0-3.6 1.2-4.5 8.2-6 3.3-.7 6.7-2.2 8.3-3.7 1.4-1.3 2.9-2.4 3.3-2.4.7 0 6.2 9.2 6.2 10.4 0 .3-.8.6-1.7.6-1 0-3.8 1.6-6.2 3.5-3.9 3.1-5.1 3.5-10.2 3.5-3.3 0-5.9.4-5.9.9s1.8 2.6 4 4.7c2.7 2.6 4 4.7 4 6.5 0 1.4.8 3.5 1.8 4.5 3.1 3.5 11.9 9.2 21.4 14 10.7 5.4 17.8 10.8 17.8 13.6 0 3.3-2.9 3.2-8.3-.3-2.9-1.8-9.2-5.4-14.2-7.9-4.9-2.6-12-6.5-15.8-8.8-7.7-4.8-25-13.5-31.9-16.2-3.9-1.5-5-1.6-6.5-.5-2.2 1.6-.7 3.7 4 5.5 1.8.7 5 2 7.2 2.9 4.9 1.9 24.8 12 25.5 12.9.3.4 2.1 1.5 4 2.4 6.3 3.1 16.5 8.9 18.5 10.6 2.6 2.2 5.4 3.8 13.8 7.9 3.7 1.8 7 4.1 7.3 5.1 1.1 3.6 2.2 4.7 4.4 4.4 1.3-.1 3 .4 3.9 1.2.9.9 2.2 1.2 2.9.7 1.7-1.1-2.7-9.1-5-9.1-1.3 0-1.8-.8-1.8-2.8 0-1.5-1.3-4.9-3-7.5-1.6-2.6-2.6-4.7-2.2-4.7.9 0 3.1 3.4 11.6 17.5 6.7 11.2 7.6 13.5 5.4 13.5-.7 0-2.4 1.3-3.8 2.9-3.3 4-19.5 13.2-24.2 13.8-5.5.8-5.1-2.1.6-4.7 2.4-1.2 5.2-2.9 6.2-3.8 1-1 4-3.2 6.7-5 2.6-1.8 4.7-3.6 4.7-4 0-.4-1-1.3-2.1-2-1.9-1.2-2.6-1-6.4 1.7-2.4 1.7-5.5 3.5-7.1 4.1-1.5.6-5.7 3.2-9.3 5.8-5.3 3.7-7.6 4.7-12.3 5.3-4.5.5-6.8 1.4-10.1 4.1-2.3 1.9-10.5 6.2-18.3 9.6-10.9 4.8-15.2 6.2-19 6.2-5.8 0-14.3 1.9-24.9 5.6-7.1 2.4-8.7 2.6-17.3 2.1-6.8-.5-11.6-.2-17.1.9-8.1 1.7-26.8 1.5-42.1-.5-8.7-1.1-37.5-.2-36.2 1.1.5.5 5.4 1.4 10.8 1.9 14.4 1.5 22.6 2.8 25.3 4.3 1.3.7 3.3 3.3 4.5 5.7 1.4 3 2.8 4.5 4.4 4.7 3.1.5 2.9-2.1-.4-4.2-3.7-2.5-3.1-7 1.1-7.4 4.5-.6 9.6 1.4 14.3 5.4 5 4.2 7.1 4.1 9.4-.5 1-1.9 2.5-3.9 3.4-4.4 2.5-1.4 8.9 1.1 10.5 4 2 3.8 9.9 6.5 9.9 3.4 0-.4-1.1-1.3-2.5-1.9-1.4-.6-2.5-1.8-2.5-2.7 0-2.9 4.7-4.5 17.3-6 6.9-.8 14.8-2.4 17.7-3.5 5.6-2.2 14.9-2.7 16.8-.8.7.7 1.2 2 1.2 3 0 1.4-.8 1.8-4.2 1.8-5.3 0-9.8 2.9-7.5 4.8 1.1 1 2.6.7 7.1-1.4 3.2-1.4 7.5-2.8 9.7-3.1 4.4-.6 4.5-.9 2.3-4.1-.8-1.2-1.4-3.5-1.2-5 .3-2.5.6-2.7 5.3-2.6 2.8 0 8.6.8 13 1.8 10.2 2.3 31.9 1.8 40.5-1 6.7-2.2 13.6-6.6 13.2-8.5-1.6-6.2-1.4-8.1.8-10.4 1.3-1.4 2.7-2.5 3.2-2.5.4 0 3-1.4 5.6-3 7.7-4.7 9-4.3 14.4 4.7 17.4 29.4 21.8 37 21.8 37.8 0 1-20.6.5-24.2-.6-2.7-.7-4-1.7-4.4-3.4-1.6-6.4 1.7-8.9 7.8-5.7 2.4 1.2 5 2.7 5.9 3.3 1 .8 2.6.9 4.5.4 2.8-.8 2.8-.9-2-1.9-7.2-1.7-9-6.4-3.2-8.6 2.6-.9 4.4-3 2.7-3-.6 0-1.1-.5-1.1-1.2 0-2.7-8.6-15.8-11.2-16.9-2.7-1.1-7.6-.5-11.1 1.3-1.8.9-1.8 1.1-.1 2.9.9 1 4.2 2.8 7.3 4 6.9 2.5 8.1 3.5 8.1 6.5 0 1.8-1 2.9-4.1 4.4-2.2 1.2-4.9 3.7-6.1 5.6-2.4 4-4.6 4.3-10.6 1.4-6.3-3.1-16.2-2.2-16.2 1.4 0 2.1 1.1 2.6 8.1 3.7 8.3 1.3 11.9 3.3 11.9 6.4 0 1.4-.1 2.5-.2 2.5-.2 0-5.7 1.1-12.3 2.5-23.1 4.8-27 5.5-32.7 5.5-3.1 0-8 .5-11 1.1-2.9.6-7.8 1.5-10.8 2.1-3 .6-8 1.7-11 2.5-10.4 2.6-39.8 8.3-42.7 8.3-1.5 0-3.6-.7-4.6-1.4-1.6-1.2-2.5-1.2-6-.1-3.5 1.1-38.1 2.9-49.7 2.5-1.4 0-13.3-.2-26.5-.4s-26.7-.8-30-1.4c-3.3-.6-10.3-1.1-15.5-1.1-15.2.2-30.4-1.6-34.3-4-1.8-1.1-5.1-2.4-7.4-2.9-3.4-.8-4.7-.6-7.2.9-1.7 1-3.1 2.3-3.1 2.8 0 1.5 6.8 3.1 13 3.1 3 0 9 .9 13.4 2 5.6 1.4 11.2 2 19.5 2 8.1 0 13 .5 16.1 1.6 4.5 1.6 23.7 2.9 58.5 3.7 16.3.5 47.7-.8 58.5-2.4 4.1-.6 10.4-1.4 14-1.9 3.6-.5 13-1.4 21-2.1 8.7-.6 19.3-2.2 26.5-3.9 18-4.2 26.9-5.5 38.5-5.5 12.2 0 17 1.7 17 6.1 0 3.4-6.4 6.3-14 6.4-6.6.1-11.9 1.8-13.4 4.3-1.9 3.1 1.3 4.5 8.1 3.6 3.2-.4 6.8-.6 7.9-.3 2.2.6 4.4 4.2 4.4 7 0 2.3-5.5 7.4-7.9 7.4-1.2 0-2.1.4-2.1 1 0 .5.5 1 1 1 .6 0 1 .7 1 1.5 0 1.2-1.6 1.5-8 1.5s-8-.3-8-1.5c0-2.9-3.8-5.5-8.1-5.5-5.3 0-7.9 1.5-7.9 4.5 0 2.4-.2 2.5-7.4 2.5-6.9 0-7.5-.2-7.8-2.2-.2-1.5-1.5-2.7-4.1-3.7-3.4-1.3-4.2-1.2-7.4.3-1.9.9-3.7 2.6-4 3.6-.5 1.8-1.4 2-8.9 2-7.2 0-8.7-.3-10.5-2.1-1.6-1.6-2.8-2-5.3-1.5-1.7.3-3.6 1.3-4.2 2.1-1.6 2.2-35.4 2.2-35.4.1 0-2.6-2.3-3-4.1-.8-1.5 1.9-2.8 2.2-8.7 2.2-6.1 0-7-.2-7.5-2-.3-1.1-1.2-2-2.1-2-.9 0-2.5.9-3.6 2-1.7 1.7-3.3 2-11.1 2h-9.1l.7-3.1c.8-3.7-1.1-3.2-2.5.7-.9 2.3-1.2 2.4-12.4 2.4h-11.5l-.3-2.6c-.5-4.4-3-5.2-8.3-2.6-2.5 1.2-4.5 2.9-4.5 3.7 0 1.3-2 1.5-12 1.5-9.9 0-12-.3-12-1.5 0-2.1 3.2-3.5 7.9-3.5 5.1 0 5.9-1.3 2.6-4.6l-2.6-2.6-4.4 4.1c-2.4 2.2-5.6 4.3-7 4.7-1.5.4-8.2.3-14.8 0-48.1-2.8-47.8-2.8-52.9-8.7-4.3-4.9-4.6-8-.9-8.9 1.3-.3 3-1.5 3.7-2.6 1.2-1.7 1.2-2.3 0-3.9-1.1-1.6-2.9-1.8-13.7-1.9-13-.1-12.4.1-20.8-5.5-1.2-.8-1.1-1.7 1-5.5 2.7-5.1 3.2-5.3 13-3.7 10.4 1.7 13.9 3.1 18.9 7.6 4.9 4.3 7.1 5.2 10.3 3.9 1.1-.4 1.4-1.5 1-3.9-.4-2.7-.1-3.5 1.6-4.4 1.1-.7 2.1-1.8 2.1-2.5 0-1.7-4.3-3.6-8.3-3.6-4.9 0-18.4-2.8-21.5-4.5-1.5-.8-3.8-2.3-5.1-3.3l-2.4-1.9 5.1-8.8 5.1-8.8 1.2 2.7c1.2 2.6 1.1 2.9-2 5.3-3.1 2.5-3.2 2.7-1.5 4 2.5 1.8 6.2 1.6 11.3-.7l4.4-2-.7-5-.7-4.9 3.8-1c2.1-.6 4.6-1.1 5.5-1.1 1 0 4-2.1 6.9-4.6 2.8-2.5 6.2-4.9 7.5-5.4 4.6-1.8 1.7-8-4.4-9.5-3-.7-11-4.3-13-5.8-1-.8-.7-2 1.4-5.6 1.5-2.5 3.3-5.2 4-5.9.9-.7 1-.8.4 0-1.8 2.2-1.1 4 3.7 8.6l4.6 4.6 15.8 1.1c13.7.9 16.1 1.3 18.7 3.2 1.7 1.2 6.9 4 11.7 6.2 9 4.2 11.2 4.3 14.8.6 2.7-2.6 2.1-4.6-3.3-11.3-5.1-6.2-5.1-6.2-10.3-6.2-7.4 0-12.6-3.8-12.7-9.3 0-2.3.4-2.7 3-2.7 2.4 0 3.5.8 5.5 4 2.6 4.1 5.1 5.1 6.1 2.6.3-.8.8-3.5 1.2-6.1.8-5.5 3.1-7.7 5.7-5.5.8.7 4 6.3 6.9 12.4 3.6 7.5 6.6 12.4 9.4 15.1 3.2 3.1 4.2 4.8 4.2 7.2 0 2.9-.4 3.3-4.2 4.4-3.4.9-3.9 1.3-2.5 2 1 .6 4 .5 8.2-.2 6.2-1.2 6.7-1.1 9.3.9 4.8 3.8 8.2 5.3 11.5 5 3.1-.4 2.9-.5-3.5-3.7-6.4-3.1-12.4-8.5-16.4-14.7-1-1.6-2.4-3.5-3-4.1-.7-.7-2-3.4-3-6-.9-2.7-3.3-8.4-5.2-12.8-4.1-9.7-5.3-18.2-2.8-22 .9-1.4 2.3-2.5 3.2-2.5 1.2 0 1.3.9.8 5-.6 4.4-.4 5.1 1.4 5.7 1.1.5 3.7 3 5.8 5.8 6.4 8.5 16 16.8 24.2 20.9 3.6 1.8 4.3 4.6 1.2 4.6-1.2 0-3.9-.9-6.2-2-2.3-1.1-5.7-2.2-7.7-2.6l-3.6-.6 3.4 2.9c3.9 3.2 16.7 10.5 26.1 14.8 6.3 2.9 7 3 24.3 3.3 9.8.2 21.7-.1 26.4-.8 7.8-1 17.3-4.3 18.1-6.2.2-.4.8-.8 1.3-.8s3.3-1.6 6.2-3.5c2.8-1.9 5.7-3.5 6.2-3.5 2 0 7.7-4.8 10.3-8.7 1.4-2.1 4.1-8 5.9-13.3 1.9-5.2 4.1-10.8 4.9-12.5 1.4-2.8 1.3-3-.8-4.7-3.2-2.4-1.4-5.2 3.6-5.6 6.4-.6 31.6 12.8 31.6 16.7 0 1.1-1.2 2.8-2.6 3.8-1.6 1.2-2.9 3.4-3.5 6.3-2.5 11.4-2.9 12.1-11.5 20.8-7.5 7.6-9.1 10.2-6.4 10.2.6 0 3.1-1.3 5.7-2.9 2.7-1.6 8.6-4.1 13.3-5.6 10.3-3.2 43.4-19.5 43.8-21.6.1-.9-1.5-2.4-4-3.7-8.2-4.3-15.3-8.5-15.6-9.4-.2-.4-1-.8-1.8-.8-1.5 0-4.4-1.6-14.4-7.7-10.6-6.5-18-10.3-27-14-4.7-2-11.2-4.9-14.5-6.6-6.3-3.2-14.4-5.7-18.4-5.7-2.8 0-6.1-2.6-6.1-4.7 0-.8 1.4-2 3.2-2.7l3.1-1.3-3.6-.5c-4.2-.5-6.4.5-9.4 4.1l-2.1 2.6-28.9.7c-15.8.3-30.1.9-31.8 1.2-1.6.3-7.2 1-12.4 1.7-5.2.6-12 1.9-15 2.9-3.1.9-8.3 2.3-11.6 3-3.3.6-7 1.6-8.3 2.1-1.3.5-3.1.9-4 .9-.9 0-6 1.6-11.2 3.5-5.2 2-13.5 4.4-18.4 5.4-10 2.1-13.6 4.8-13.6 10 0 2.7-.4 3-7.1 4.6-8.6 2.1-15.1 5.4-20.3 10.3l-3.9 3.7 2.4-4.5c1.4-2.5 5.2-9.1 8.4-14.7 5.5-9.2 6.3-10.2 10-11.3 2.2-.7 6.5-2.5 9.5-4.1 7-3.8 12.1-4.6 15.1-2.6 2 1.4 2.5 1.4 5.2.1 2.7-1.5 2.9-1.8 2.3-5.9-.6-3.7-.4-4.6 1.6-6.5 9.4-8.7 28.4-18.5 38.9-20 3.5-.5 9.3-1.8 12.8-3 7.6-2.4 11-2.5 15.8-.5 5.6 2.4 9.4 1.9 12.6-1.4 1.6-1.8 5.1-3.7 8.5-4.7l5.7-1.8-9.5-.9c-7-.7-10.7-.6-14 .3-7 1.9-26 5-31.2 5-4 0-4.8-.3-4.8-1.8 0-1.1 1.2-2.4 2.8-3.1 6.1-2.8 9.2-5.5 9.2-8.4 0-6.1-8-3.7-11.4 3.4-2.3 4.9-7.6 8.9-11.5 8.9-1.4 0-4.6-1.4-7.1-3.1-2.5-1.7-5.7-3.3-7.2-3.6-2-.4-2.8-1.2-2.8-2.6 0-1.9.4-1.9 7.6-1.3 9.8.9 19.3-1.9 16.4-4.8-.5-.5-1-1.6-1-2.2 0-1.3 5.4-4.4 7.5-4.4 1.8 0 19.3-5.8 24-7.9 2.2-1 7.4-2.9 11.5-4.1 4.1-1.3 8.1-2.8 8.7-3.3 1.9-1.4 8.5-3.6 11.1-3.7 1.2 0 2.2.6 2.2 1.2zm107.4 14.7c1.6 1.7 1.4 1.8-3.8 2.5-5.7.6-11.4 3.3-19.5 9.1-2.5 1.8-7.9 5-11.8 7-6.6 3.4-7.9 3.7-13.3 3.3-4.9-.3-6.5-.9-9-3.3-3.8-3.7-3.8-6.8-.1-9.4 1.6-1.2 3.2-2.1 3.5-2.1.4 0 2.5-1.2 4.8-2.7 3.7-2.5 5.3-2.8 16.7-3.5 6.9-.5 16-1.2 20.1-1.7 4.1-.4 8.2-.9 9.1-1 .9 0 2.3.7 3.3 1.8zm-.9 13.9c3.9 2.1 5 3.2 5 5.2 0 5.1-10.4 6.3-16.7 1.8-3-2.1-3.8-6.4-1.6-8.6 2-2 8-1.2 13.3 1.6zm-207.4 10.5c-1.8 1.8-2.3.1-.9-2.9 1.3-2.8 1.3-2.8 1.6-.5.2 1.3-.1 2.8-.7 3.4zm193.7-3.3c1.5 1.4 2.2 3.3 2.2 5.7v3.6l-5.5-.6c-13.9-1.4-17.3-10.7-4-10.7 3.8 0 5.7.5 7.3 2zm-180.3 5c.3.6.3 1.9 0 3-.9 2.8-9.5 3-9.5.2 0-1 .5-2.3 1.2-3 1.5-1.5 7.4-1.6 8.3-.2zm10.9 5.6c2.5 1 2 5.1-.6 5.8-3.6.9-4.5.7-5.2-1-1.6-4 1.4-6.5 5.8-4.8zm-23.3 8.4c2 1.1 2.6 4.5.8 5.5-1.6 1.1-7.9-.5-8.6-2.1-1.4-3.8 3.2-5.8 7.8-3.4zm232.8 1.6c2.5 3.2 2.7 6 .5 6.8-.9.3-4.2.6-7.4.6-5.8 0-7-.8-7-4.5 0-2.7 4.2-5.5 8.1-5.5 2.9 0 4.2.6 5.8 2.6zm6.7 12.2c.6.4 1.4 1.7 1.8 2.9.6 2 .4 2.3-2.1 2.3-3.3 0-5.3-1.6-5.3-4.2 0-1.9 3.4-2.5 5.6-1zM257 287.4c0 1.8-5.3 6.3-9.5 8-1.8.8-3.6 1.9-4 2.5-.9 1.6 2.2 6.2 4.6 6.8 2.6.7 2.4 3.7-.5 5.2-1.3.7-3.3 3-4.5 5.1-3 5.3-6.3 6.2-14.6 3.9-7.3-2-17.5-14.9-16.1-20.4.9-3.5 6.8-6.6 14.4-7.6 12.6-1.6 20.7-2.9 23.7-3.8 4.4-1.4 6.5-1.3 6.5.3zm140.5 5.7c.8 2.3.1 3.4-1.4 2.4-1.3-.8-1.5-4.5-.2-4.5.5 0 1.3.9 1.6 2.1zm-104.4 1.1c.5 7.3-.5 17.1-2.2 22.5-2.2 6.8-8.4 13.8-16 18-4.2 2.4-14.2 3.2-15.4 1.3-.9-1.4-6.8-1.3-8.3.2-.7.7-1.2 2.2-1.2 3.4 0 1.2-.7 2.7-1.5 3.4-2.3 1.9-6.5-.2-6.5-3.3 0-1.3-.5-2.8-1.2-3.5-1.4-1.4-7.4-1.6-8.3-.3-.3.6-2.5 1.3-4.9 1.6-5.3.8-10.1-.6-17.1-4.9-2.7-1.7-6.8-4-8.9-5.1-5.4-2.8-12-12.3-13.6-19.7-1.4-6.6-.5-8.8 3.6-8.8 2.6 0 2.9.9 1.4 5.9-1.1 3.9.2 6.9 5.2 12.7 5.9 6.7 20.4 15.4 25.8 15.4 3.9 0 3.8-1.6-.2-3.4-4.9-2.1-11.8-7.4-11.8-9.1 0-2.3 1.7-1.9 10 2.4 8.4 4.4 15.6 6.7 24.3 7.7 5.7.6 6.9.4 28.5-4.9 3.4-.8 5-1.9 7-5 5.3-7.9 6.5-11.1 6.9-18.7.3-4.1.6-8.1.8-8.8.7-2.1 3.5-1.3 3.6 1zm-153.3 8c-.4 2.9-5.5 3.9-6.5 1.3-.7-2 1.2-3.5 4.5-3.5 1.9 0 2.3.5 2 2.2zm-48 45.9c7.2 3.9 8.2 4.7 8.2 6.9 0 2.6-1.8 2.9-11.9 2.3l-9.1-.6 3.2-5.8c1.8-3.3 3.4-5.9 3.6-5.9.2 0 2.9 1.4 6 3.1zm277.8 8.3c.8.8 1.4 2.6 1.4 3.9 0 2.1-.6 2.5-4.1 3.1-2.2.4-4.4.4-5 .1-1.7-1.1-.9-5.4 1.3-6.9 2.8-2 4.5-2 6.4-.2zm19.8 5c.3 1.4.3 3.2 0 4-.7 1.7-4.4 2.2-4.4.6 0-.6-.7-1-1.5-1-1 0-1.5-1-1.5-3 0-2.7.3-3 3.4-3 2.7 0 3.5.5 4 2.4zm52.1 34.7c5.7 1.6 7.5 3.5 7.5 8.1 0 3.2-.4 4-2.6 4.8-6.4 2.5-24 .3-32.4-4-5.3-2.7-5.6-6.4-.7-8.5 3.9-1.7 22.4-2 28.2-.4zm24.3 13.1c1.7 3.2 3.2 7.5 3.5 10.9.6 5.1.4 5.9-1.8 8.3-1.4 1.5-2.5 3.4-2.5 4.2 0 .7-.6 1.4-1.4 1.4-.8 0-2.1.8-2.8 1.8-.7 1.1-3.9 2.9-7.1 4-5.3 2-7.7 2.2-29.2 2.2-20 0-23.5-.2-23.5-1.5 0-.8 1.2-2.1 2.8-2.9 1.5-.8 3.5-2.3 4.5-3.4 1.8-1.9 1.7-2-3.8-5.1-4.3-2.4-5.5-3.6-5.5-5.5 0-1.4.6-2.8 1.3-3.3 7.5-4.9 33.5-4.1 42.6 1.3 2.7 1.6 4.4 5.4 2.3 5.4-.4 0-4.4.5-8.9 1-8.7 1.1-14.2 2.9-16.2 5.4-1.1 1.3-.9 1.7 1.4 2.6 3.5 1.3 7.8 1.2 14.8-.5 6.2-1.4 8.7-2.9 8.7-5.1 0-2.2 4.4-2.7 10.5-1.1l5.7 1.4 1.9-3.1c2.4-3.9 2.4-4.6.1-4.6-3.4 0-8.2-3.1-8.8-5.6-1-3.9.7-4.9 6-3.5 2.5.6 4.7 1.1 5 1.1.3 0-.3-2.4-1.4-5.3-2.2-5.7-2.2-5.7-1.6-5.7.2 0 1.7 2.4 3.4 5.2zM62.3 421.7c6.6 3.5 7.6 6.7 2.4 7.7-6.8 1.3-7.5 6-1.2 7.2 2.9.5 4.9 0 10.1-2.6 7.5-3.7 9.6-3.6 10.5.5.3 1.7.8 3.7 1 4.5.3 1.3-1.7 1.5-14.1 1.5H56.5l-4.1-4.2c-7.9-8.1-11.3-15-8.6-17.7 1.5-1.7 13.3.3 18.5 3.1z"
                    sketch:type="MSShapeGroup" />
                <path
                    d="M287.4 141.3c-2.8 2.5-2.6 4.7.5 4.7 1.9 0 6.1-4 6.1-5.8 0-2-3.7-1.3-6.6 1.1zm-29.2-.2c-1.3.5-2.2 1.5-2 2.1.8 2.2 5.3 4.1 8.1 3.4 2.8-.7 5.2-4 4.2-5.6-.8-1.2-7.2-1.2-10.3.1zm34.8 22.1c0 8.7 4.2 10.1 11.2 3.9 2.8-2.5 3-3.1 1.9-4.5-.8-1-2.9-1.6-5.4-1.6-2.4 0-4.8-.7-5.9-1.7-1.7-1.5-1.8-1.4-1.8 3.9zm-25.2 20.6c-3.7 2.2-3.5 2.8 1 3.9 7 1.8 13.5-1.9 8.3-4.7-2.8-1.5-6.2-1.2-9.3.8zm31-.2c-2.1.9-3.8 1.9-3.8 2.3 0 3 16.3 4.2 20.9 1.7l2.5-1.4-3.1-1.5c-4.7-2.5-12.2-3-16.5-1.1zm-56.6 1.3c-2.7 1.6-.9 4.6 2.9 4.9 4.4.4 9.4-3.1 6.9-4.8-1.8-1.2-8-1.3-9.8-.1zm-27.1 36.4c-1.3.6-2.3 1.6-2.3 2.2.2 1.7 4.2 1.7 6.9 0 2-1.4 2.3-1.9 1.2-2.6-1.9-1.2-3-1.1-5.8.4zm13.2 10.4c-2.9 1.1-1 2.1 3 1.6 6.3-.8 8.1-2.2 2.7-2.2-2.5 0-5.1.3-5.7.6zm-25.6 26c-2.6 2.5 1.8 5.2 5.3 3.3 1.7-.9 1.9-1.4.9-2.6-1.2-1.4-5.1-1.9-6.2-.7zm-25.4 10.8c-2 1.9-3.4 3.8-3 4.1.5.5 11-3 12.6-4.2.2-.2-.2-1-.9-1.9-2-2.4-4.7-1.8-8.7 2zm-16.2 7.4c-1.6 1-.6 3.1 1.4 3.1.8 0 2.9-.9 4.7-2l3.3-2h-4c-2.2 0-4.6.4-5.4.9zm167 31c-1.2.8-1.2 1.3.2 3.4.9 1.4 2.1 4.6 2.8 7.1 1 4 .9 5.4-.6 9.3-1.8 4.6-6.8 10.3-9.1 10.3-1.3 0-7.4 6.5-7.4 7.9 0 .5-2.7 3.6-6.1 6.9-5.2 5.2-5.9 6.3-5 8 .6 1.1 2.2 2.2 3.5 2.4 3 .6 5-1.3 9.3-9.2 1.7-3 6.6-9.1 10.8-13.5 4.7-4.8 8.7-10 10-13 1.3-2.8 3-5.7 3.9-6.4 3.9-3.2.2-10.4-6.7-13-3.4-1.3-3.8-1.3-5.6-.2zM127 352.8l-2.3 1.8 2.8 2.2c3.3 2.6 4.8 2.7 6.9.6 2.1-2 2-3.4-.1-5-2.5-1.8-4.7-1.7-7.3.4zm-13.3 12.9c-2.4 2.3 4.1 7.1 7.7 5.7 2.4-.9 1.9-2.2-1.6-4.4-3.5-2.1-5-2.4-6.1-1.3zm24.8 6.9c-2 1.5-2 1.5-.1 3 4.1 3 14.3.2 11.5-3.2-1.5-1.9-8.9-1.7-11.4.2zm-41.8 7.2c-3.6 4-.7 6.1 4.2 3.1 1.8-1.1 3.1-2.5 2.8-3.2-.6-2-5.2-2-7 .1zm271.2-.4c-.6.6-18.2 5.2-26.9 7-4.1.9-13.1 2.9-20 4.6-29.1 7-22.8 6.5-78.5 6.5-43.6 0-52.6-.3-61.8-1.8-12.4-2-19.2-1.2-16.7 1.8 2.2 2.7 14.9 4.3 46 5.6 29.4 1.3 26.9 1.3 56 .5 12.9-.4 26-1.1 29-1.6 3-.6 10.2-1.9 16-2.9 5.8-1.1 15.9-3 22.5-4.2 13.1-2.4 21.5-4.4 34.5-8.4 9.5-2.9 12.4-7.5 4.7-7.5-2.4 0-4.6.2-4.8.4zM118 384.3c-5.2 2.6-1.1 6.6 7.3 7 3.9.2 4.2 0 4.5-2.5.3-2.3-.2-3-3.4-4.3-4.4-1.8-5.2-1.8-8.4-.2zm69.2.3c-2.8 1.9-2.8 4 0 4.7 4.2 1.1 7.4-2.3 4.6-5.1-1.5-1.5-1.9-1.5-4.6.4z"
                    sketch:type="MSShapeGroup" />
                <path
                    d="M298.2 386.2c.3.7 1.3 1.5 2.2 1.6 1.2.3 1.7-.1 1.4-1-.3-.7-1.3-1.5-2.2-1.6-1.2-.3-1.7.1-1.4 1zm-152.9 5.3c-2.7 2.4-2.8 2.5-.9 4 1.1.8 2.3 1.5 2.8 1.5 1.6 0 4.8-4 4.8-6 0-2.8-3.2-2.6-6.7.5zM103 421.9c-1.9 1.6-3.1 3.3-2.7 3.8.5.4 5.7.8 11.5.8 9.1 0 11.4.3 15.1 2.2 5.2 2.7 11.3 3 13.1.7 1.1-1.2 1-1.8-.4-3.2-1.3-1.3-4.2-1.8-12.4-2.3-6.5-.4-11.9-1.2-13.7-2.2-5.7-2.9-6.9-2.9-10.5.2zm243.6-.9c-5 2.5-5.1 2.7-3.6 4.5 2.6 3.1 16 1.1 16-2.4 0-4.4-5.8-5.4-12.4-2.1zm-166.2 2.1c-1 1.7 1.3 3.6 2.7 2.2 1.2-1.2.4-3.3-1.1-3.3-.5 0-1.2.5-1.6 1.1zm139.2.9c-6.2 2.4-7.6 3.7-5.6 5.1 2.7 1.8 11.2.4 13.2-2.1 3.8-4.7.2-6.1-7.6-3zm-31 2.1c-2.1 1.7-2.4 2.4-1.5 3.5 1.6 2 6.3 1.7 8.3-.4 1.5-1.8 1.5-2-.2-3.5-2.4-2.2-3.4-2.1-6.6.4zm-28.7.8c-2.2 1.8-2.3 2-.6 2.7 2.3.8 7-1.2 6.4-2.9-.6-2-3.2-1.9-5.8.2zm-30.4.7c-1.7 1.8-1.7 4.5.1 5.1.6.2 2.2-.5 3.5-1.6 2-1.6 2.1-2.1 1-3.5-1.7-2-2.5-2-4.6 0z"
                    sketch:type="MSShapeGroup" />
            </g>
            <path id="back_triangles" transform="scale(4)"
                d="M374.18 137.77L285.87 86.65 344.76 86.8 374.18 137.77ZM409.11 301.02L409.23 198.98 438.54 250.05 409.11 301.02ZM285.87 412.96L374.3 362.04 344.72 412.96 285.87 412.96ZM155.84 412.91L126.41 361.94 214.72 413.06 155.84 412.91ZM61.13 249.95L90.55 198.98 90.43 301.02 61.13 249.95ZM155.87 86.75L214.72 86.75 126.29 137.67 155.87 86.75Z"
                fill="#3c3f4c" sketch:type="MSShapeGroup"></path>

            <path transform="scale(4)" id="front_triangles"
                d="M375.41 236.57L403.03 150.11 250 61.48C250 61.48 282.82 87.52 316.49 134.53 350.16 181.53 375.41 236.57 375.41 236.57ZM323.96 352.62L412.65 333.31 412.89 156.47C412.89 156.47 406.75 197.92 382.87 250.58 359 303.24 323.96 352.62 323.96 352.62ZM199.25 364.91L260.31 432.06 413.58 343.86C413.58 343.86 374.62 359.26 317.08 364.91 259.53 370.57 199.25 364.91 199.25 364.91ZM124.59 263.43L96.97 349.89 250 438.52C250 438.52 217.18 412.48 183.51 365.47 149.84 318.47 124.59 263.43 124.59 263.43ZM175.84 148.4L87.15 167.71 86.91 344.55C86.91 344.55 93.05 303.1 116.92 250.44 140.8 197.78 175.84 148.4 175.84 148.4ZM301.23 134.65L240.16 67.5 86.89 155.71C86.89 155.71 125.86 140.3 183.4 134.65 240.94 129 301.23 134.65 301.23 134.65Z"
                fill="#8b9cbe" sketch:type="MSShapeGroup"></path>



        </g>

    </g>

</svg>