<svg xmlns="http://www.w3.org/2000/svg" viewBox="0 0 2000 1000">

    <defs>
        <clipPath id="clip">
            <circle r=400 cx="1000" cy="500" />
        </clipPath>
    </defs>

    <path class="f3" d="
  M 400 200
  q 0 40 40 80
  q -40 40 -40 80
  q 0 -40 -40 -80
  q 40 -40 40 -80      
" />

    <path class="f3" d="
  M 1800 600
  q 0 40 40 80
  q -40 40 -40 80
  q 0 -40 -40 -80
  q 40 -40 40 -80      
" />

    <path class="f3" d="
  M 200 400
  q 0 40 40 80
  q -40 40 -40 80
  q 0 -40 -40 -80
  q 40 -40 40 -80      
" />

    <path class="f3" d="
  M 500 700
  q 0 40 40 80
  q -40 40 -40 80
  q 0 -40 -40 -80
  q 40 -40 40 -80      
" />
    <path class="f2" d="
  M 1600 300
  q 0 40 40 80
  q -40 40 -40 80
  q 0 -40 -40 -80
  q 40 -40 40 -80      
" />


    <g clip-path="url(#clip)">
        <path class="f2" d="
     M 600 900
     l 0 -800
     l 800 0
     l 0 800;
     z
   " />
        <path class="f3" d="
     M 600 900
     l 0 -720
     q 200 -120 400 0
     t 400 0
     l 0 720;
     z
   " />
        <path class="f4" d="
     M 600 900
     l 0 -640
     q 200 -80 400 0
     t 400 0
     l 0 640;
     z
   " />
        <path class="f5" d="
     M 600 900
     l 0 -560
     q 200 -40 400 0
     t 400 0
     l 0 560;
     z
   " />
        <path class="f4" d="
     M 600 900
     l 0 -480
     q 200 0 400 0
     t 400 0
     l 0 480;
     z
   " />
        <path class="f3" d="
     M 600 900
     l 0 -400
     q 200 40 400 0
     t 400 0
     l 0 400;
     z
   " />
        <path class="f2" d="
     M 600 900
     l 0 -320
     q 200 80 400 0
     t 400 0
     l 0 320;
     z
   " />
        <path class="f3" d="
     M 600 900
     l 0 -240
     q 200 120 400 0
     t 400 0
     l 0 240;
     z
   " />
        <path class="f4" d="
     M 600 900
     l 0 -160
     q 200 80 400 0
     t 400 0
     l 0 160;
     z
   " />
        <path class="f5" d="
     M 600 900
     l 0 -80
     q 200 40 400 0
     t 400 0
     l 0 80;
     z
   " />
    </g>
</svg>